<svg id="Key_Icon" data-name="Key Icon" xmlns="http://www.w3.org/2000/svg" viewBox="0 0 24 24"><defs><style>.cls-1{fill:none;}.cls-2{fill:#164d61;}</style></defs><rect class="cls-1" width="24" height="24"/><path class="cls-2" d="M20.5,6H3.5a1.5,1.5,0,0,0,0,3H8v7.09a1.49,1.49,0,0,0,0,2.82V20.5a1.5,1.5,0,0,0,3,0V15h2v5.5a1.5,1.5,0,0,0,3,0V13.91a1.49,1.49,0,0,0,0-2.82V9h4.5a1.5,1.5,0,0,0,0-3ZM8.5,17a.5.5,0,1,1-.5.5A.5.5,0,0,1,8.5,17Zm7-4a.5.5,0,1,1,.5-.5A.5.5,0,0,1,15.5,13Zm5-5H16a1,1,0,0,0-1,1v2.09a1.49,1.49,0,0,0,0,2.82V20.5a.5.5,0,0,1-1,0V15a1,1,0,0,0-1-1H11a1,1,0,0,0-1,1v5.5a.5.5,0,0,1-1,0V18.91a1.49,1.49,0,0,0,0-2.82V9A1,1,0,0,0,8,8H3.5a.5.5,0,0,1,0-1h17a.5.5,0,0,1,0,1Z"/><path class="cls-2" d="M11.5,8A1.5,1.5,0,1,0,13,9.5,1.5,1.5,0,0,0,11.5,8Zm0,2a.5.5,0,1,1,.5-.5A.5.5,0,0,1,11.5,10Z"/><path class="cls-2" d="M12,3a1,1,0,1,1-1,1,1,1,0,0,1,1-1m0-1a2,2,0,1,0,2,2,2,2,0,0,0-2-2Z"/></svg>