<svg id="Key_Icon" data-name="Key Icon" xmlns="http://www.w3.org/2000/svg" viewBox="0 0 24 24"><defs><style>.cls-1{fill:none;}.cls-2{fill:#164d61;}</style></defs><rect class="cls-1" width="24" height="24"/><rect class="cls-2" x="7" y="12" width="10" height="1" rx="0.5"/><rect class="cls-2" x="7" y="15" width="10" height="1" rx="0.5"/><rect class="cls-2" x="7" y="18" width="6" height="1" rx="0.5"/><path class="cls-2" d="M19.41,7.41,14.59,2.59A2,2,0,0,0,13.17,2H6A2,2,0,0,0,4,4V20a2,2,0,0,0,2,2H18a2,2,0,0,0,2-2V8.83A2,2,0,0,0,19.41,7.41ZM19,20a1,1,0,0,1-1,1H6a1,1,0,0,1-1-1V4A1,1,0,0,1,6,3h7V7a2,2,0,0,0,2,2h4Z"/></svg>