<svg id="Key_Icon" data-name="Key Icon" xmlns="http://www.w3.org/2000/svg" viewBox="0 0 24 24"><defs><style>.cls-1{fill:none;}.cls-2{fill:#164d61;}</style></defs><rect class="cls-1" width="24" height="24"/><path class="cls-2" d="M20,4.31h0a.45.45,0,0,0-.16-.2l-.05,0A.46.46,0,0,0,19.5,4h-3a.5.5,0,0,0,0,1h1.79L12,11.29,9.35,8.65a.48.48,0,0,0-.7,0l-4.5,4.5a.49.49,0,0,0,.7.7L9,9.71l2.65,2.64a.48.48,0,0,0,.7,0L19,5.71V7.5a.5.5,0,0,0,1,0v-3A.41.41,0,0,0,20,4.31Z"/><path class="cls-2" d="M7,15H5a1,1,0,0,0-1,1v3a1,1,0,0,0,1,1H7a1,1,0,0,0,1-1V16A1,1,0,0,0,7,15Zm0,4H5V16H7Z"/><path class="cls-2" d="M13,14H11a1,1,0,0,0-1,1v4a1,1,0,0,0,1,1h2a1,1,0,0,0,1-1V15A1,1,0,0,0,13,14Zm0,5H11V15h2Z"/><path class="cls-2" d="M19,10H17a1,1,0,0,0-1,1v8a1,1,0,0,0,1,1h2a1,1,0,0,0,1-1V11A1,1,0,0,0,19,10Zm0,9H17V11h2Z"/></svg>