<svg id="Key_Icon" data-name="Key Icon" xmlns="http://www.w3.org/2000/svg" viewBox="0 0 24 24"><defs><style>.cls-1{fill:none;}.cls-2{fill:#164d61;}</style></defs><rect class="cls-1" width="24" height="24"/><path class="cls-2" d="M12.5,10v3h3v1h-3v3h-1V14h-3V13h3V10h1m0-1h-1a1,1,0,0,0-1,1v2h-2a1,1,0,0,0-1,1v1a1,1,0,0,0,1,1h2v2a1,1,0,0,0,1,1h1a1,1,0,0,0,1-1V15h2a1,1,0,0,0,1-1V13a1,1,0,0,0-1-1h-2V10a1,1,0,0,0-1-1Z"/><path class="cls-2" d="M10.17,5a1,1,0,0,1,.71.29l1.41,1.42A1,1,0,0,0,13,7h7a1,1,0,0,1,1,1V19a1,1,0,0,1-1,1H4a1,1,0,0,1-1-1V6A1,1,0,0,1,4,5h6.17m0-1H4A2,2,0,0,0,2,6V19a2,2,0,0,0,2,2H20a2,2,0,0,0,2-2V8a2,2,0,0,0-2-2H13L11.59,4.59A2,2,0,0,0,10.17,4Z"/></svg>