<svg id="Key_Icon" data-name="Key Icon" xmlns="http://www.w3.org/2000/svg" viewBox="0 0 24 24"><defs><style>.cls-1{fill:none;}.cls-2{fill:#164d61;}</style></defs><rect class="cls-1" width="24" height="24"/><path class="cls-2" d="M12.06,3.49a10.84,10.84,0,0,1,2.38,5.59A15.47,15.47,0,0,0,12,10.87,14.7,14.7,0,0,0,9.58,9.08a11.21,11.21,0,0,1,2.48-5.59m-9,7.56a10.77,10.77,0,0,1,4.8,1.66l.1.09.31.2.1.06A11.2,11.2,0,0,1,11.16,16a1,1,0,0,0,1.68,0,11.1,11.1,0,0,1,2.66-2.84l.12-.08.14-.09a1.64,1.64,0,0,0,.22-.14l.15-.12A10.83,10.83,0,0,1,21,11.05a11.17,11.17,0,0,1-7.31,9.49A10.57,10.57,0,0,1,12,21a9.65,9.65,0,0,1-1.62-.43,11.19,11.19,0,0,1-7.32-9.5m9-9A12.19,12.19,0,0,0,8.51,9.63,13.87,13.87,0,0,1,12,12.26a14.36,14.36,0,0,1,3.49-2.63A11.79,11.79,0,0,0,12.06,2ZM22,10a12,12,0,0,0-10,5.45,12.11,12.11,0,0,0-3.06-3.2c-.13-.09-.27-.16-.4-.26l.39.25A11.78,11.78,0,0,0,2,10a12.17,12.17,0,0,0,8,11.49A10.75,10.75,0,0,0,12,22a12.94,12.94,0,0,0,2-.51A12.17,12.17,0,0,0,22,10Zm-7,2.29c.13-.1.27-.17.4-.26-.13.09-.27.16-.4.26Zm-6.08,0h0l.05,0-.06,0Zm.06,0Z"/></svg>