<svg id="Key_Icon" data-name="Key Icon" xmlns="http://www.w3.org/2000/svg" viewBox="0 0 24 24"><defs><style>.cls-1{fill:none;}.cls-2{fill:#164d61;}</style></defs><rect class="cls-1" width="24" height="24"/><path class="cls-2" d="M12,2a9.68,9.68,0,0,0-1.68.14A10,10,0,0,0,3,16.24L2,22l5.76-1A9.87,9.87,0,0,0,12,22a10.45,10.45,0,0,0,1.83-.16A10,10,0,0,0,12,2Zm8.88,11.51a9,9,0,0,1-7.23,7.34A9.21,9.21,0,0,1,12,21a9,9,0,0,1-3.82-.86.9.9,0,0,0-.42-.1H7.59l-4.37.73L4,16.41a1,1,0,0,0-.09-.59,9,9,0,0,1,6.63-12.7A9.61,9.61,0,0,1,12,3a9,9,0,0,1,8.88,10.51Z"/><path class="cls-2" d="M9,12a2,2,0,1,0-2-2A2,2,0,0,0,9,12ZM9,9a1,1,0,1,1-1,1A1,1,0,0,1,9,9Z"/><path class="cls-2" d="M15,8a2,2,0,1,0,2,2A2,2,0,0,0,15,8Zm0,3a1,1,0,1,1,1-1A1,1,0,0,1,15,11Z"/><path class="cls-2" d="M16.1,14.2a5.13,5.13,0,0,1-8.2,0,.5.5,0,0,0-.8.6,6.13,6.13,0,0,0,9.8,0,.5.5,0,0,0-.1-.7A.51.51,0,0,0,16.1,14.2Z"/></svg>