<svg id="Key_Icon" data-name="Key Icon" xmlns="http://www.w3.org/2000/svg" viewBox="0 0 24 24"><defs><style>.cls-1{fill:none;}.cls-2{fill:#164d61;}</style></defs><rect class="cls-1" width="24" height="24"/><path class="cls-2" d="M7,4A2,2,0,1,0,4.5,5.93v4.14a2,2,0,0,0,0,3.86v4.14a2,2,0,1,0,1,0V13.93a2,2,0,0,0,0-3.86V5.93A2,2,0,0,0,7,4ZM4,4A1,1,0,1,1,5,5,1,1,0,0,1,4,4ZM6,20a1,1,0,1,1-1-1A1,1,0,0,1,6,20Zm0-8a1,1,0,1,1-1-1A1,1,0,0,1,6,12Z"/><path class="cls-2" d="M20.5,2H9.5a.5.5,0,0,0-.5.5v3a.5.5,0,0,0,.5.5h11a.5.5,0,0,0,.5-.5v-3A.5.5,0,0,0,20.5,2ZM20,5H10V3H20Z"/><path class="cls-2" d="M20.5,18H9.5a.5.5,0,0,0-.5.5v3a.5.5,0,0,0,.5.5h11a.5.5,0,0,0,.5-.5v-3A.5.5,0,0,0,20.5,18ZM20,21H10V19H20Z"/><path class="cls-2" d="M9.5,14h7a.5.5,0,0,0,.5-.5v-3a.5.5,0,0,0-.5-.5h-7a.5.5,0,0,0-.5.5v3A.5.5,0,0,0,9.5,14Zm.5-3h6v2H10Z"/></svg>