<svg id="Key_Icon" data-name="Key Icon" xmlns="http://www.w3.org/2000/svg" viewBox="0 0 24 24"><defs><style>.cls-1{fill:none;}.cls-2{fill:#164d61;}</style></defs><rect class="cls-1" width="24" height="24"/><circle class="cls-2" cx="11" cy="10" r="1"/><circle class="cls-2" cx="7" cy="10" r="1"/><circle class="cls-2" cx="15" cy="10" r="1"/><path class="cls-2" d="M18,3H4A1.93,1.93,0,0,0,2,4.86V19l3-3H18a2,2,0,0,0,2-2V4.86A1.93,1.93,0,0,0,18,3Zm1,11a1,1,0,0,1-1,1H5a1,1,0,0,0-.71.29L3,16.59V4.86A.94.94,0,0,1,4,4H18a.94.94,0,0,1,1,.86Z"/><path class="cls-2" d="M21,6v8a3,3,0,0,1-3,3H8a1,1,0,0,0,1,1H19l3,3V7A1,1,0,0,0,21,6Z"/></svg>