<svg id="Key_Icon" data-name="Key Icon" xmlns="http://www.w3.org/2000/svg" viewBox="0 0 24 24"><defs><style>.cls-1{fill:none;}.cls-2{fill:#164d61;}</style></defs><rect class="cls-1" width="24" height="24"/><path class="cls-2" d="M20,12a2,2,0,0,0-2,2v5a2,2,0,0,0,4,0V14A2,2,0,0,0,20,12Zm1,7a1,1,0,0,1-2,0V17h2Zm-2-3V14a1,1,0,0,1,2,0v2Z"/><path class="cls-2" d="M14.22,6.81,13,6h1V3a1,1,0,0,0-1-1H5A1,1,0,0,0,4,3V6H5l-1.22.81A4,4,0,0,0,2,10.14V20a2,2,0,0,0,2,2H14a2,2,0,0,0,2-2V10.14A4,4,0,0,0,14.22,6.81ZM5,3h8V5H5ZM15,20a1,1,0,0,1-1,1H4a1,1,0,0,1-1-1V10.14a3,3,0,0,1,1.34-2.5l1.21-.81A1,1,0,0,0,6,6h6a1,1,0,0,0,.45.83l1.21.81A3,3,0,0,1,15,10.14Z"/><path class="cls-2" d="M13,14H9.5v-3.5a.5.5,0,0,0-1,0V14H5a.5.5,0,0,0-.5.5A.5.5,0,0,0,5,15H8.5v3.5a.5.5,0,0,0,1,0V15H13a.5.5,0,0,0,.5-.5A.5.5,0,0,0,13,14Z"/></svg>