<svg id="Key_Icon" data-name="Key Icon" xmlns="http://www.w3.org/2000/svg" viewBox="0 0 24 24"><defs><style>.cls-1{fill:none;}.cls-2{fill:#164d61;}</style></defs><rect class="cls-1" width="24" height="24"/><rect class="cls-2" x="5" y="16" width="14" height="1" rx="0.5"/><path class="cls-2" d="M18.46,6.81h0a.45.45,0,0,0-.16-.2l-.05,0A.46.46,0,0,0,18,6.5H15a.5.5,0,0,0,0,1h1.79L12,12.29,9.35,9.65a.48.48,0,0,0-.7,0l-3,3a.49.49,0,0,0,.7.7L9,10.71l2.65,2.64a.48.48,0,0,0,.7,0L17.5,8.21V10a.5.5,0,0,0,1,0V7A.41.41,0,0,0,18.46,6.81Z"/><path class="cls-2" d="M20,3a1,1,0,0,1,1,1V20a1,1,0,0,1-1,1H4a1,1,0,0,1-1-1V4A1,1,0,0,1,4,3H20m0-1H4A2,2,0,0,0,2,4V20a2,2,0,0,0,2,2H20a2,2,0,0,0,2-2V4a2,2,0,0,0-2-2Z"/></svg>