<svg id="Key_Icon" data-name="Key Icon" xmlns="http://www.w3.org/2000/svg" viewBox="0 0 24 24"><defs><style>.cls-1{fill:#8be3d7;}.cls-2{fill:none;}.cls-3{fill:#164d61;}</style></defs><polygon class="cls-1" points="7.59 19 5 19 5 16.41 14.85 6.56 17.44 9.15 7.59 19"/><path class="cls-1" d="M19.29,7.29,18.15,8.44,15.56,5.85l1.15-1.14a1.82,1.82,0,1,1,2.58,2.58Z"/><rect class="cls-2" width="24" height="24"/><path class="cls-3" d="M20,4a2.82,2.82,0,0,0-4,0L4,16v4H8L20,8A2.84,2.84,0,0,0,20,4ZM7.59,19H5V16.41l9.85-9.85,2.59,2.59ZM19.29,7.29,18.15,8.44,15.56,5.85l1.15-1.14a1.82,1.82,0,1,1,2.58,2.58Z"/></svg>