<svg id="Key_Icon" data-name="Key Icon" xmlns="http://www.w3.org/2000/svg" viewBox="0 0 24 24"><defs><style>.cls-1{fill:#8be3d9;}.cls-2{fill:none;}.cls-3{fill:#164d61;}</style></defs><rect class="cls-1" x="5" y="5" width="14" height="14" rx="1"/><rect class="cls-2" width="24" height="24"/><path class="cls-3" d="M21.5,11H15.81L14,7.28a.5.5,0,0,0-.92.06l-2.57,7.71L9,11.31A.49.49,0,0,0,8.5,11h-6a.5.5,0,0,0,0,1H4v6a2,2,0,0,0,2,2H18a2,2,0,0,0,2-2V12h1.5a.5.5,0,0,0,0-1ZM19,18a1,1,0,0,1-1,1H6a1,1,0,0,1-1-1V12H8.16L10,16.69a.49.49,0,0,0,.46.31h0a.5.5,0,0,0,.46-.34L13.59,8.8l1.46,2.92a.51.51,0,0,0,.45.28H19Z"/><path class="cls-3" d="M5,6A1,1,0,0,1,6,5H18a1,1,0,0,1,1,1v5h1V6a2,2,0,0,0-2-2H6A2,2,0,0,0,4,6v5H5Z"/></svg>