<svg xmlns="http://www.w3.org/2000/svg" width="24" height="14.011" viewBox="0 0 24 14.011">
  <path id="android" d="M24,21.495H0a13.6,13.6,0,0,1,2.21-6.07,11.2,11.2,0,0,1,3.66-3.53l.41-.23L4.26,8.255a.51.51,0,0,1,.17-.7.5.5,0,0,1,.69.18l2.08,3.5a12.62,12.62,0,0,1,4.84-.9,12.2,12.2,0,0,1,4.75.9l2.07-3.5a.5.5,0,0,1,.7-.17.51.51,0,0,1,.16.7l-2.02,3.42.5.28a11.38,11.38,0,0,1,3.63,3.62A14.48,14.48,0,0,1,24,21.495Zm-7.5-4.48a1,1,0,1,0,1-1A1,1,0,0,0,16.5,17.015Zm-11,0a1,1,0,1,0,1-1A1,1,0,0,0,5.5,17.015Z" transform="translate(0 -7.484)" fill="#164d61"/>
</svg>
