<svg xmlns="http://www.w3.org/2000/svg" width="19.483" height="24" viewBox="0 0 19.483 24">
  <path id="apple" d="M8.2,23.538a5.375,5.375,0,0,1-1.243-1.149,15.4,15.4,0,0,1-1.063-1.453A14.058,14.058,0,0,1,4.113,17.3a13.667,13.667,0,0,1-.743-4.345,8.076,8.076,0,0,1,1-4.088,5.777,5.777,0,0,1,2.1-2.181,5.6,5.6,0,0,1,2.839-.84A4.687,4.687,0,0,1,10.438,6c.29.08.64.21,1.069.37.55.21.85.34.95.37a2.341,2.341,0,0,0,.8.17,2.4,2.4,0,0,0,.645-.13c.145-.05.42-.14.81-.31.386-.14.692-.26.935-.35a8.341,8.341,0,0,1,1.049-.26,4.953,4.953,0,0,1,1.147-.05,6.807,6.807,0,0,1,1.939.42,5.23,5.23,0,0,1,2.455,1.959,4.9,4.9,0,0,0-.724.55,6.132,6.132,0,0,0-1.229,1.5,5.1,5.1,0,0,0-.644,2.519,5.156,5.156,0,0,0,.84,2.859,5.327,5.327,0,0,0,1.533,1.535,3.944,3.944,0,0,0,.84.45c-.12.375-.252.74-.405,1.1A14.143,14.143,0,0,1,21.2,21.01c-.432.63-.772,1.1-1.029,1.409a5.561,5.561,0,0,1-1.179,1.1,2.629,2.629,0,0,1-1.451.436,3.218,3.218,0,0,1-1.033-.127c-.29-.1-.576-.2-.856-.323a6.936,6.936,0,0,0-.9-.34,4.518,4.518,0,0,0-1.163-.147,4.68,4.68,0,0,0-1.159.145,7.176,7.176,0,0,0-.907.325c-.42.175-.694.29-.854.34a4.468,4.468,0,0,1-.99.175,2.748,2.748,0,0,1-1.485-.45ZM15.049,5.087a3.723,3.723,0,0,1-1.972.436,4.006,4.006,0,0,1,.27-2.036,5.5,5.5,0,0,1,1-1.679A5.406,5.406,0,0,1,15.976.549,4.635,4.635,0,0,1,17.865,0a4.544,4.544,0,0,1-.25,2.069,5.935,5.935,0,0,1-1,1.759A5.034,5.034,0,0,1,15.03,5.086Z" transform="translate(-3.37 0.001)" fill="#164d61"/>
</svg>
