<svg id="Key_Icon" data-name="Key Icon" xmlns="http://www.w3.org/2000/svg" viewBox="0 0 24 24"><defs><style>.cls-1{fill:#8be3d7;}.cls-2{fill:none;}.cls-3{fill:#164d61;}</style></defs><path class="cls-1" d="M7,3H17a1,1,0,0,1,1,1v6.74l-6,4.2-6-4.2V4A1,1,0,0,1,7,3Z"/><rect class="cls-2" width="24" height="24"/><path class="cls-3" d="M21.51,6.87,19,5.36V4a2,2,0,0,0-2-2H7A2,2,0,0,0,5,4V5.36L2.49,6.87A1,1,0,0,0,2,7.73V20a2,2,0,0,0,2,2H20a2,2,0,0,0,2-2V7.73A1,1,0,0,0,21.51,6.87ZM7,3H17a1,1,0,0,1,1,1v6.74l-6,4.2-6-4.2V4A1,1,0,0,1,7,3ZM3,8V7.73l2-1.2V10L3,8.64ZM21,20a1,1,0,0,1-1,1H4a1,1,0,0,1-1-1V9.86l8.43,5.9a1,1,0,0,0,1.14,0L21,9.86ZM21,8v.64L19,10V6.53l2,1.2Z"/><path class="cls-3" d="M10,11.5a.47.47,0,0,1-.35-.15l-2.5-2.5a.49.49,0,0,1,.7-.7L10,10.29l5.65-5.64a.49.49,0,0,1,.7.7l-6,6A.47.47,0,0,1,10,11.5Z"/></svg>