<svg id="Key_Icon" data-name="Key Icon" xmlns="http://www.w3.org/2000/svg" viewBox="0 0 24 24"><defs><style>.cls-1{fill:none;}.cls-2{fill:#164d61;}</style></defs><rect class="cls-1" width="24" height="24"/><path class="cls-2" d="M12,15a3,3,0,0,0,3-3V9.71l6.35-6.36a.49.49,0,0,0-.7-.7l-18,18a.48.48,0,0,0,0,.7.48.48,0,0,0,.7,0l4.8-4.79A5.89,5.89,0,0,0,11.5,18v3h-1a.5.5,0,0,0,0,1h3a.5.5,0,0,0,0-1h-1V18A6,6,0,0,0,18,12.7a.65.65,0,0,0,0-.2v-2a.5.5,0,0,0-1,0V12a5,5,0,0,1-8.15,3.86l1.42-1.42A3,3,0,0,0,12,15Zm2-3a2,2,0,0,1-2,2,2,2,0,0,1-1-.28l3-3Z"/><path class="cls-2" d="M10,5a2,2,0,0,1,4,0V7l1-1V5A3,3,0,0,0,9,5v7l1-1Z"/><path class="cls-2" d="M6.55,14.45l.76-.76A5,5,0,0,1,7,12V10.5a.5.5,0,0,0-1,0v2a.65.65,0,0,0,0,.2A6,6,0,0,0,6.55,14.45Z"/></svg>