<svg id="Key_Icon" data-name="Key Icon" xmlns="http://www.w3.org/2000/svg" viewBox="0 0 24 24"><defs><style>.cls-1{fill:none;}.cls-2{fill:#164d61;}</style></defs><rect class="cls-1" width="24" height="24"/><rect class="cls-1" width="24" height="24"/><path class="cls-2" d="M10.16,19H5.71l5.21-5.22a.49.49,0,0,0-.7-.7L5,18.29V13.84a.5.5,0,0,0-1,0V19.5a.43.43,0,0,0,0,.19.36.36,0,0,0,.11.16.36.36,0,0,0,.16.11.43.43,0,0,0,.19,0h5.66a.5.5,0,0,0,0-1Z"/><path class="cls-2" d="M13.84,5h4.45l-5.21,5.22a.49.49,0,0,0,.7.7L19,5.71v4.45a.5.5,0,0,0,1,0V4.5a.43.43,0,0,0,0-.19.36.36,0,0,0-.11-.16A.36.36,0,0,0,19.69,4a.43.43,0,0,0-.19,0H13.84a.5.5,0,0,0,0,1Z"/></svg>