<svg id="Key_Icon" data-name="Key Icon" xmlns="http://www.w3.org/2000/svg" viewBox="0 0 24 24"><defs><style>.cls-1{fill:none;}.cls-2{fill:#164d61;}</style></defs><rect class="cls-1" width="24" height="24"/><rect class="cls-1" width="24" height="24"/><path class="cls-2" d="M21.5,16a.5.5,0,0,0-.5.5V20a1,1,0,0,1-1,1H4a1,1,0,0,1-1-1V16.5a.5.5,0,0,0-1,0V20a2,2,0,0,0,2,2H20a2,2,0,0,0,2-2V16.5A.5.5,0,0,0,21.5,16Z"/><path class="cls-2" d="M12.5,2.5V15.29l5.15-5.14a.49.49,0,1,1,.7.7l-6,6a.48.48,0,0,1-.7,0l-6-6a.48.48,0,0,1,0-.7.48.48,0,0,1,.7,0l5.15,5.14V2.5a.5.5,0,0,1,1,0Z"/></svg>