<svg id="Key_Icon" data-name="Key Icon" xmlns="http://www.w3.org/2000/svg" viewBox="0 0 24 24"><defs><style>.cls-1{fill:#8be3d7;}.cls-2{fill:none;}.cls-3{fill:#164d61;}</style></defs><path class="cls-1" d="M15,20,8.6,15.2A1,1,0,0,0,8,15H4a1,1,0,0,1-1-1V10A1,1,0,0,1,4,9H8a1,1,0,0,0,.6-.2L15,4Z"/><rect class="cls-2" width="24" height="24"/><rect class="cls-2" width="24" height="24"/><path class="cls-3" d="M15,3a1,1,0,0,0-.6.2L8,8H4a2,2,0,0,0-2,2v4a2,2,0,0,0,2,2H8l6.4,4.8a1,1,0,0,0,.6.2,1,1,0,0,0,1-1V4A1,1,0,0,0,15,3Zm0,17L8.6,15.2A1,1,0,0,0,8,15H4a1,1,0,0,1-1-1V10A1,1,0,0,1,4,9H8a1,1,0,0,0,.6-.2L15,4Z"/><path class="cls-3" d="M17.28,7.55a.51.51,0,0,0-.23.67,8.45,8.45,0,0,1,0,7.56.51.51,0,0,0,.23.67.54.54,0,0,0,.22.05.5.5,0,0,0,.45-.28,9.49,9.49,0,0,0,0-8.44A.51.51,0,0,0,17.28,7.55Z"/><path class="cls-3" d="M19.93,5.75a.5.5,0,1,0-.86.5,11.42,11.42,0,0,1,0,11.5.49.49,0,0,0,.18.68.45.45,0,0,0,.25.07.5.5,0,0,0,.43-.25A12.42,12.42,0,0,0,19.93,5.75Z"/></svg>