<svg id="Key_Icon" data-name="Key Icon" xmlns="http://www.w3.org/2000/svg" viewBox="0 0 24 24"><defs><style>.cls-1{fill:none;}.cls-2{fill:#48ccc6;}.cls-3{fill:#164d61;}</style></defs><rect class="cls-1" width="24" height="24"/><path class="cls-2" d="M15,21H3V19a3,3,0,0,1,3-3h6a3,3,0,0,1,3,3Z"/><rect class="cls-2" x="18" y="7" width="3" height="6" rx="1"/><circle class="cls-2" cx="9" cy="9" r="4"/><path class="cls-3" d="M9,14A5,5,0,1,0,4,9,5,5,0,0,0,9,14ZM9,5A4,4,0,1,1,5,9,4,4,0,0,1,9,5Z"/><path class="cls-3" d="M20,6H19a2,2,0,0,0-2,2v4a2,2,0,0,0,2,2v4a1,1,0,0,1-1,1H16a4,4,0,0,0-4-4H6a4,4,0,0,0-4,4v3H16V20h2a2,2,0,0,0,2-2V14a2,2,0,0,0,2-2V8A2,2,0,0,0,20,6ZM15,21H3V19a3,3,0,0,1,3-3h6a3,3,0,0,1,3,3Zm6-9a1,1,0,0,1-1,1H19a1,1,0,0,1-1-1V10h3Zm0-3H18V8a1,1,0,0,1,1-1h1a1,1,0,0,1,1,1Z"/></svg>