<svg id="Key_Icon" data-name="Key Icon" xmlns="http://www.w3.org/2000/svg" viewBox="0 0 24 24"><defs><style>.cls-1{fill:none;}.cls-2{fill:#FFFFFF;}</style></defs><rect class="cls-1" width="24" height="24"/><path class="cls-2" d="M4.91,13.93H9.36L4.15,19.15a.49.49,0,0,0,.7.7l5.22-5.21v4.45a.5.5,0,0,0,1,0V13.43a.41.41,0,0,0,0-.19.53.53,0,0,0-.27-.27.41.41,0,0,0-.19,0H4.91a.5.5,0,0,0,0,1Z"/><path class="cls-2" d="M19.09,10.07H14.64l5.21-5.22a.49.49,0,1,0-.7-.7L13.93,9.36V4.91a.5.5,0,0,0-1,0v5.66a.41.41,0,0,0,0,.19.53.53,0,0,0,.27.27.41.41,0,0,0,.19,0h5.66a.5.5,0,0,0,0-1Z"/></svg>