<svg id="Key_Icon" data-name="Key Icon" xmlns="http://www.w3.org/2000/svg" viewBox="0 0 24 24"><defs><style>.cls-1{fill:none;}.cls-2{fill:#164d61;}</style></defs><rect class="cls-1" width="24" height="24"/><path class="cls-2" d="M8.14,14.24A1.07,1.07,0,0,1,8,13.72V12h.5a.5.5,0,0,0,0-1h-4a.5.5,0,0,0,0,1H5v1.72a1.07,1.07,0,0,1-.14.52l-2.43,4A3,3,0,0,0,2,19.83V20a2,2,0,0,0,2,2H9a2,2,0,0,0,2-2v-.17a3,3,0,0,0-.43-1.54ZM10,20a1,1,0,0,1-1,1H4a1,1,0,0,1-1-1v-.17a2,2,0,0,1,.29-1l2.42-4.05a2,2,0,0,0,.29-1V12H7v1.72a2,2,0,0,0,.29,1L9.71,18.8a2,2,0,0,1,.29,1Z"/><path class="cls-2" d="M21.41,7.41,16.59,2.59A2,2,0,0,0,15.17,2H8A2,2,0,0,0,6,4v6H7V4A1,1,0,0,1,8,3h7V7a2,2,0,0,0,2,2h4V20a1,1,0,0,1-1,1H12v1h8a2,2,0,0,0,2-2V8.83A2,2,0,0,0,21.41,7.41Z"/></svg>