<svg id="Key_Icon" data-name="Key Icon" xmlns="http://www.w3.org/2000/svg" viewBox="0 0 24 24"><defs><style>.cls-1{fill:#48ccc6;}.cls-2{fill:none;}.cls-3{fill:#164d61;}</style></defs><path class="cls-1" d="M15,20a1,1,0,0,1-1,1H10a1,1,0,0,1-1-1V15a3,3,0,0,1,6,0Z"/><circle class="cls-1" cx="12" cy="6" r="3"/><path class="cls-1" d="M6,19H3V15.5a1.5,1.5,0,0,1,3,0Z"/><circle class="cls-1" cx="4.5" cy="9.5" r="1.5"/><path class="cls-1" d="M21,19H18V15.5a1.5,1.5,0,0,1,3,0Z"/><circle class="cls-1" cx="19.5" cy="9.5" r="1.5"/><rect class="cls-2" width="24" height="24"/><path class="cls-3" d="M12,2a4,4,0,1,0,4,4A4,4,0,0,0,12,2Zm0,7a3,3,0,1,1,3-3A3,3,0,0,1,12,9Z"/><path class="cls-3" d="M4.5,7A2.5,2.5,0,1,0,7,9.5,2.5,2.5,0,0,0,4.5,7Zm0,4A1.5,1.5,0,1,1,6,9.5,1.5,1.5,0,0,1,4.5,11Z"/><path class="cls-3" d="M12,11a4,4,0,0,0-4,4v5a2,2,0,0,0,2,2h4a2,2,0,0,0,2-2V15A4,4,0,0,0,12,11Zm3,9a1,1,0,0,1-1,1H10a1,1,0,0,1-1-1V15a3,3,0,0,1,6,0Z"/><path class="cls-3" d="M4.5,13A2.5,2.5,0,0,0,2,15.5V19a1,1,0,0,0,1,1H6a1,1,0,0,0,1-1V15.5A2.5,2.5,0,0,0,4.5,13ZM6,19H3V15.5a1.5,1.5,0,0,1,3,0Z"/><path class="cls-3" d="M19.5,12A2.5,2.5,0,1,0,17,9.5,2.5,2.5,0,0,0,19.5,12Zm0-4A1.5,1.5,0,1,1,18,9.5,1.5,1.5,0,0,1,19.5,8Z"/><path class="cls-3" d="M19.5,13A2.5,2.5,0,0,0,17,15.5V19a1,1,0,0,0,1,1h3a1,1,0,0,0,1-1V15.5A2.5,2.5,0,0,0,19.5,13ZM21,19H18V15.5a1.5,1.5,0,0,1,3,0Z"/></svg>