<svg id="Key_Icon" data-name="Key Icon" xmlns="http://www.w3.org/2000/svg" viewBox="0 0 24 24"><defs><style>.cls-1{fill:none;}.cls-2{fill:#164d61;}</style></defs><rect class="cls-1" width="24" height="24"/><path class="cls-2" d="M20,4H4A2,2,0,0,0,2,6V16a2,2,0,0,0,2,2h7v1H6.5a.5.5,0,0,0,0,1h11a.5.5,0,0,0,0-1H13V18h7a2,2,0,0,0,2-2V6A2,2,0,0,0,20,4Zm1,12a1,1,0,0,1-1,1H4a1,1,0,0,1-1-1V6A1,1,0,0,1,4,5H20a1,1,0,0,1,1,1Z"/><path class="cls-2" d="M15.73,7a.65.65,0,0,0-.2,0H9.88a.5.5,0,0,0-.5.5.5.5,0,0,0,.5.5h4.45L8.11,14.18a.5.5,0,0,0,.71.71L15,8.67v4.45a.48.48,0,0,0,.14.35.48.48,0,0,0,.36.15.5.5,0,0,0,.5-.5V7.47a.65.65,0,0,0,0-.2A.51.51,0,0,0,15.73,7Z"/></svg>