<svg id="Key_Icon" data-name="Key Icon" xmlns="http://www.w3.org/2000/svg" viewBox="0 0 24 24"><defs><style>.cls-1{fill:#8be3d7;}.cls-2{fill:none;}.cls-3{fill:#164d61;}</style></defs><path class="cls-1" d="M17,18a1,1,0,0,1-1,1H8a1,1,0,0,1-1-1V7H17Z"/><rect class="cls-2" width="24" height="24"/><path class="cls-3" d="M10.5,9a.5.5,0,0,0-.5.5v7a.5.5,0,0,0,1,0v-7A.5.5,0,0,0,10.5,9Z"/><path class="cls-3" d="M13.5,9a.5.5,0,0,0-.5.5v7a.5.5,0,0,0,1,0v-7A.5.5,0,0,0,13.5,9Z"/><path class="cls-3" d="M19.5,6H16V5a1,1,0,0,0-1-1H9A1,1,0,0,0,8,5V6H4.5a.5.5,0,0,0,0,1H6V18a2,2,0,0,0,2,2h8a2,2,0,0,0,2-2V7h1.5a.5.5,0,0,0,0-1ZM9,5h6V6H9Zm8,13a1,1,0,0,1-1,1H8a1,1,0,0,1-1-1V7H17Z"/></svg>