<svg id="Key_Icon" data-name="Key Icon" xmlns="http://www.w3.org/2000/svg" viewBox="0 0 24 24"><defs><style>.cls-1{fill:none;}.cls-2{fill:#164d61;}</style></defs><rect class="cls-1" width="24" height="24"/><path class="cls-2" d="M21.35,2.65a.48.48,0,0,0-.7,0L16,7.29V6a2,2,0,0,0-2-2H4A2,2,0,0,0,2,6V18a2,2,0,0,0,1.4,1.9l-.75.75a.48.48,0,0,0,0,.7.48.48,0,0,0,.7,0l18-18A.48.48,0,0,0,21.35,2.65ZM4,19a1,1,0,0,1-1-1V6A1,1,0,0,1,4,5H14a1,1,0,0,1,1,1V8.29L4.29,19Z"/><path class="cls-2" d="M21.5,6a.5.5,0,0,0-.5.5V17.39a.39.39,0,0,1-.4.4.29.29,0,0,1-.16,0l-3.76-3.48A1,1,0,0,0,16,14a1.1,1.1,0,0,0-.4.08A1,1,0,0,0,15,15v3a1,1,0,0,1-1,1H8L7,20h7a2,2,0,0,0,2-2V15l3.83,3.55a1.34,1.34,0,0,0,.77.24,1.4,1.4,0,0,0,1.4-1.4V6.5A.5.5,0,0,0,21.5,6Z"/></svg>