<svg id="Key_Icon" data-name="Key Icon" xmlns="http://www.w3.org/2000/svg" xmlns:xlink="http://www.w3.org/1999/xlink" viewBox="0 0 24 24"><defs><style>.cls-1,.cls-4{fill:none;}.cls-2{opacity:0.4;}.cls-3{clip-path:url(#clip-path);}.cls-4{stroke:#000;stroke-miterlimit:10;stroke-width:0.25px;}.cls-5{opacity:0.1;}.cls-6{fill:#c1272d;}</style><clipPath id="clip-path"><rect class="cls-1" width="48" height="48"/></clipPath><symbol id="material_system_icon_keylines" data-name="material_system_icon_keylines" viewBox="0 0 48 48"><g class="cls-2"><g class="cls-3"><line class="cls-4" x1="24" x2="24" y2="48"/><line class="cls-4" x1="48" y1="24" y2="24"/><line class="cls-4" x1="48" y1="16" y2="16"/><line class="cls-4" x1="48" y1="32" y2="32"/><line class="cls-4" x1="32" y1="48" x2="32"/><line class="cls-4" x1="16" y1="48" x2="16"/><line class="cls-4" x1="47.75" y1="0.25" x2="0.25" y2="47.75"/><line class="cls-4" x1="0.25" y1="0.25" x2="47.75" y2="47.75"/><path class="cls-4" d="M24,14A10,10,0,1,0,34,24,10,10,0,0,0,24,14Z"/><path class="cls-4" d="M24,4A20,20,0,1,0,44,24,20,20,0,0,0,24,4Z"/><path class="cls-4" d="M38,6H10a4,4,0,0,0-4,4V38a4,4,0,0,0,4,4H38a4,4,0,0,0,4-4V10A4,4,0,0,0,38,6Z"/><path class="cls-4" d="M40,8H8a4,4,0,0,0-4,4V36a4,4,0,0,0,4,4H40a4,4,0,0,0,4-4V12A4,4,0,0,0,40,8Z"/><path class="cls-4" d="M40,40V8a4,4,0,0,0-4-4H12A4,4,0,0,0,8,8V40a4,4,0,0,0,4,4H36A4,4,0,0,0,40,40Z"/><path d="M47.75.25v47.5H.25V.25h47.5M48,0H0V48H48V0Z"/></g></g></symbol></defs><g class="cls-5"><path class="cls-6" d="M22,0H0V24H24V0Zm0,22H2V2H22Z"/></g><use width="48" height="48" transform="translate(0 0) scale(0.5)" xlink:href="#material_system_icon_keylines"/></svg>