<svg id="Key_Icon" data-name="Key Icon" xmlns="http://www.w3.org/2000/svg" viewBox="0 0 24 24"><defs><style>.cls-1{fill:#48ccc6;}.cls-2{fill:none;}.cls-3{fill:#164d61;}</style></defs><rect class="cls-1" x="4" y="8" width="16" height="11" rx="1"/><rect class="cls-2" width="24" height="24"/><path class="cls-3" d="M19,7H16V5a1,1,0,0,0-1-1H9A1,1,0,0,0,8,5V7H5A2,2,0,0,0,3,9v9a2,2,0,0,0,2,2H19a2,2,0,0,0,2-2V9A2,2,0,0,0,19,7ZM9,5h6V7H9ZM5,19a1,1,0,0,1-1-1V9A1,1,0,0,1,5,8H8V19Zm4,0V8h6V19Zm11-7v6a1,1,0,0,1-1,1H16V8h3a1,1,0,0,1,1,1Z"/></svg>