<svg id="Key_Icon" data-name="Key Icon" xmlns="http://www.w3.org/2000/svg" viewBox="0 0 24 24"><defs><style>.cls-1{fill:#8be3d7;}.cls-2{fill:none;}.cls-3{fill:#164d61;}</style></defs><path class="cls-1" d="M14.59,4l1.7,1.71A1,1,0,0,0,17,6h3a1,1,0,0,1,1,1V19a1,1,0,0,1-1,1H4a1,1,0,0,1-1-1V7A1,1,0,0,1,4,6H7a1,1,0,0,0,.71-.29L9.41,4h5.18"/><rect class="cls-2" width="24" height="24"/><path class="cls-3" d="M14.59,4l1.7,1.71A1,1,0,0,0,17,6h3a1,1,0,0,1,1,1V19a1,1,0,0,1-1,1H4a1,1,0,0,1-1-1V7A1,1,0,0,1,4,6H7a1,1,0,0,0,.71-.29L9.41,4h5.18M15,3H9L7,5H4A2,2,0,0,0,2,7V19a2,2,0,0,0,2,2H20a2,2,0,0,0,2-2V7a2,2,0,0,0-2-2H17L15,3Z"/><path class="cls-3" d="M12,9a4,4,0,1,1-4,4,4,4,0,0,1,4-4m0-1a5,5,0,1,0,5,5,5,5,0,0,0-5-5Z"/></svg>