<svg id="Key_Icon" data-name="Key Icon" xmlns="http://www.w3.org/2000/svg" viewBox="0 0 24 24"><defs><style>.cls-1{fill:#8be3d7;}.cls-2{fill:none;}.cls-3{fill:#164d61;}</style></defs><rect class="cls-1" x="3" y="5" width="18" height="14" rx="1"/><rect class="cls-2" width="24" height="24"/><path class="cls-3" d="M20,4H4A2,2,0,0,0,2,6V18a2,2,0,0,0,2,2H20a2,2,0,0,0,2-2V6A2,2,0,0,0,20,4ZM4,5H20a1,1,0,0,1,1,1v.25l-9,6.63L3,6.25V6A1,1,0,0,1,4,5ZM20,19H4a1,1,0,0,1-1-1V7.49l8.7,6.41a.5.5,0,0,0,.6,0L21,7.49V18A1,1,0,0,1,20,19Z"/></svg>