<svg id="Key_Icon" data-name="Key Icon" xmlns="http://www.w3.org/2000/svg" viewBox="0 0 24 24"><defs><style>.cls-1{fill:#48ccc6;}.cls-2{fill:none;}.cls-3{fill:#164d61;}</style></defs><circle class="cls-1" cx="12" cy="12" r="9"/><rect class="cls-2" width="24" height="24"/><path class="cls-3" d="M12,2A10,10,0,1,0,22,12,10,10,0,0,0,12,2Zm0,19a9,9,0,1,1,9-9A9,9,0,0,1,12,21Z"/><path class="cls-3" d="M13,5.1A4.51,4.51,0,0,0,7.5,9.5a.5.5,0,0,0,1,0,3.5,3.5,0,1,1,4.43,3.37,2,2,0,0,0-1.43,1.92V16.5a.5.5,0,0,0,1,0V14.79a1,1,0,0,1,.73-1A4.5,4.5,0,0,0,13,5.1Z"/><circle class="cls-3" cx="12" cy="18.5" r="0.5"/></svg>