<svg id="Key_Icon" data-name="Key Icon" xmlns="http://www.w3.org/2000/svg" viewBox="0 0 24 24"><defs><style>.cls-1{fill:none;}.cls-2{fill:#164d61;}</style></defs><rect class="cls-1" width="24" height="24"/><path class="cls-2" d="M18,5a.94.94,0,0,1,1,.86v9.28A.94.94,0,0,1,18,16H7a1,1,0,0,0-.71.29L5,17.59V5.86A.94.94,0,0,1,6,5H18m0-1H6A1.93,1.93,0,0,0,4,5.86V20l3-3H18a1.93,1.93,0,0,0,2-1.86V5.86A1.93,1.93,0,0,0,18,4Z"/><rect class="cls-2" x="7" y="7" width="10" height="1" rx="0.5"/><rect class="cls-2" x="7" y="10" width="10" height="1" rx="0.5"/><rect class="cls-2" x="7" y="13" width="10" height="1" rx="0.5"/></svg>