<svg id="Key_Icon" data-name="Key Icon" xmlns="http://www.w3.org/2000/svg" viewBox="0 0 24 24"><defs><style>.cls-1{fill:none;}.cls-2{fill:#164d61;}</style></defs><rect class="cls-1" width="24" height="24"/><path class="cls-2" d="M20.53,18H3.47A.48.48,0,0,1,3,17.64a.52.52,0,0,1,.19-.56s2.63-2,2.63-8.58A6.35,6.35,0,0,1,12,2a6.34,6.34,0,0,1,6.16,6.5c0,6.59,2.61,8.57,2.63,8.59a.52.52,0,0,1,.19.56A.47.47,0,0,1,20.53,18ZM4.61,17H19.39c-.9-1.21-2.18-3.75-2.18-8.5A5.37,5.37,0,0,0,12,3,5.37,5.37,0,0,0,6.79,8.5C6.79,13.25,5.51,15.79,4.61,17Z"/><path class="cls-2" d="M12,21a2,2,0,0,1-2-2H9a3,3,0,0,0,6,0H14A2,2,0,0,1,12,21Z"/></svg>