<svg id="Key_Icon" data-name="Key Icon" xmlns="http://www.w3.org/2000/svg" viewBox="0 0 24 24"><defs><style>.cls-1{fill:none;}.cls-2{fill:#164d61;}</style></defs><rect class="cls-1" width="24" height="24"/><path class="cls-2" d="M14,5a1,1,0,0,1,1,1V9a1,1,0,0,0,.6.92A1.1,1.1,0,0,0,16,10a1,1,0,0,0,.68-.27l3.76-3.48a.29.29,0,0,1,.16,0,.39.39,0,0,1,.4.4V17.39a.39.39,0,0,1-.4.4.29.29,0,0,1-.16,0l-3.76-3.48A1,1,0,0,0,16,14a1.1,1.1,0,0,0-.4.08A1,1,0,0,0,15,15v3a1,1,0,0,1-1,1H4a1,1,0,0,1-1-1V6A1,1,0,0,1,4,5H14m0-1H4A2,2,0,0,0,2,6V18a2,2,0,0,0,2,2H14a2,2,0,0,0,2-2V15l3.83,3.55a1.34,1.34,0,0,0,.77.24,1.4,1.4,0,0,0,1.4-1.4V6.61a1.4,1.4,0,0,0-1.4-1.4,1.34,1.34,0,0,0-.77.24L16,9V6a2,2,0,0,0-2-2Z"/></svg>