<svg id="Key_Icon" data-name="Key Icon" xmlns="http://www.w3.org/2000/svg" viewBox="0 0 24 24"><defs><style>.cls-1{fill:none;}.cls-2{fill:#164d61;}</style></defs><rect class="cls-1" width="24" height="24"/><path class="cls-2" d="M18,5a1,1,0,0,1,1,1V18a1,1,0,0,1-1,1H6a1,1,0,0,1-1-1V6A1,1,0,0,1,6,5H18m0-1H6A2,2,0,0,0,4,6V18a2,2,0,0,0,2,2H18a2,2,0,0,0,2-2V6a2,2,0,0,0-2-2Z"/><path class="cls-2" d="M17.72,8.06a.51.51,0,0,0-.71,0l-6.64,6.65L7.72,12.06a.5.5,0,1,0-.71.71l3,3a.51.51,0,0,0,.36.15.5.5,0,0,0,.35-.15l7-7A.51.51,0,0,0,17.72,8.06Z"/></svg>