<svg id="Key_Icon" data-name="Key Icon" xmlns="http://www.w3.org/2000/svg" viewBox="0 0 24 24"><defs><style>.cls-1{fill:none;}.cls-2{fill:#164d61;}</style></defs><rect class="cls-1" width="24" height="24"/><rect class="cls-1" width="24" height="24"/><path class="cls-2" d="M16.5,9h-9a.5.5,0,0,0,0,1h9a.5.5,0,0,0,0-1Z"/><path class="cls-2" d="M16.5,12h-9a.5.5,0,0,0,0,1h9a.5.5,0,0,0,0-1Z"/><path class="cls-2" d="M12.7,15H7.3c-.17,0-.3.22-.3.5s.13.5.3.5h5.4c.17,0,.3-.22.3-.5S12.87,15,12.7,15Z"/><path class="cls-2" d="M18,4H6a2.05,2.05,0,0,0-1.12.34,2.31,2.31,0,0,0-.54.54A2.05,2.05,0,0,0,4,6V18a2,2,0,0,0,2,2H18a2.05,2.05,0,0,0,1.12-.34,2.31,2.31,0,0,0,.54-.54A2.05,2.05,0,0,0,20,18V6A2,2,0,0,0,18,4Zm1,14a1,1,0,0,1-1,1H6a1,1,0,0,1-1-1V6A1,1,0,0,1,6,5H18a1,1,0,0,1,1,1V18Z"/></svg>