<svg id="Key_Icon" data-name="Key Icon" xmlns="http://www.w3.org/2000/svg" viewBox="0 0 24 24"><defs><style>.cls-1{fill:none;}.cls-2{fill:#164d61;}</style></defs><rect class="cls-1" width="24" height="24"/><path class="cls-2" d="M20,12,17,9a7.1,7.1,0,0,0-9.9,0L4,12l3.05,3A7.1,7.1,0,0,0,17,15Zm-8,4a6,6,0,0,1-4.25-1.72L5.43,12,7.75,9.72a6.11,6.11,0,0,1,8.5,0L18.57,12l-2.32,2.28A6,6,0,0,1,12,16Z"/><path class="cls-2" d="M12,9a3,3,0,1,0,3,3A3,3,0,0,0,12,9Zm0,5a2,2,0,1,1,2-2A2,2,0,0,1,12,14Z"/><path class="cls-2" d="M3.5,8A.5.5,0,0,0,4,7.5V5A1,1,0,0,1,5,4H7.5a.5.5,0,0,0,0-1H5A2,2,0,0,0,3,5V7.5A.5.5,0,0,0,3.5,8Z"/><path class="cls-2" d="M19,3H16.5a.5.5,0,0,0,0,1H19a1,1,0,0,1,1,1V7.5a.5.5,0,0,0,1,0V5A2,2,0,0,0,19,3Z"/><path class="cls-2" d="M20.5,16a.5.5,0,0,0-.5.5V19a1,1,0,0,1-1,1H16.5a.5.5,0,0,0,0,1H19a2,2,0,0,0,2-2V16.5A.5.5,0,0,0,20.5,16Z"/><path class="cls-2" d="M7.5,20H5a1,1,0,0,1-1-1V16.5a.5.5,0,0,0-1,0V19a2,2,0,0,0,2,2H7.5a.5.5,0,0,0,0-1Z"/></svg>