<svg id="Key_Icon" data-name="Key Icon" xmlns="http://www.w3.org/2000/svg" viewBox="0 0 24 24"><defs><style>.cls-1{fill:none;}.cls-2{fill:#164d61;}</style></defs><rect class="cls-1" width="24" height="24"/><path class="cls-2" d="M6.56,3a1,1,0,0,1,1,.68L8.66,7.14a1,1,0,0,1-.24,1l-.11.1a3,3,0,0,0-.56,3.47,10.14,10.14,0,0,0,4.51,4.51,3,3,0,0,0,3.47-.56l.1-.11a1,1,0,0,1,.71-.29,1.19,1.19,0,0,1,.32.05l3.46,1.15a1,1,0,0,1,.68,1V20a1,1,0,0,1-1,1A17,17,0,0,1,3,4,1,1,0,0,1,4,3H6.56m0-1H4A2,2,0,0,0,2,4H2A18,18,0,0,0,20,22h0a2,2,0,0,0,2-2V17.44a2,2,0,0,0-1.37-1.9l-3.46-1.15a1.93,1.93,0,0,0-.63-.1,2,2,0,0,0-1.41.58L15,15a2,2,0,0,1-2.31.38h0a9.11,9.11,0,0,1-4.07-4.07h0A2,2,0,0,1,9,9l.11-.11a2,2,0,0,0,.48-2L8.46,3.37A2,2,0,0,0,6.56,2Z"/></svg>