<svg id="Key_Icon" data-name="Key Icon" xmlns="http://www.w3.org/2000/svg" viewBox="0 0 24 24"><defs><style>.cls-1{fill:none;}.cls-2{fill:#164d61;}</style></defs><rect class="cls-1" width="24" height="24"/><path class="cls-2" d="M19,5V7H5V5H19m0-1H5A1,1,0,0,0,4,5V7A1,1,0,0,0,5,8H19a1,1,0,0,0,1-1V5a1,1,0,0,0-1-1Z"/><path class="cls-2" d="M19,17v2H5V17H19m0-1H5a1,1,0,0,0-1,1v2a1,1,0,0,0,1,1H19a1,1,0,0,0,1-1V17a1,1,0,0,0-1-1Z"/><path class="cls-2" d="M19,11v2H5V11H19m0-1H5a1,1,0,0,0-1,1v2a1,1,0,0,0,1,1H19a1,1,0,0,0,1-1V11a1,1,0,0,0-1-1Z"/></svg>