<svg id="Key_Icon" data-name="Key Icon" xmlns="http://www.w3.org/2000/svg" viewBox="0 0 24 24"><defs><style>.cls-1{fill:none;}.cls-2{fill:#164d61;}</style></defs><rect class="cls-1" width="24" height="24"/><circle class="cls-2" cx="12" cy="9" r="4"/><path class="cls-2" d="M14.5,14h-5A2.52,2.52,0,0,0,7,16.55a6.35,6.35,0,0,0,3.54,2.28l1-3.83h1l1,3.83A6.35,6.35,0,0,0,17,16.55,2.52,2.52,0,0,0,14.5,14Z"/><path class="cls-2" d="M12,3a9,9,0,1,1-9,9,9,9,0,0,1,9-9m0-1h0a10,10,0,0,0,0,20h0A10,10,0,0,0,12,2Z"/></svg>