<svg id="Key_Icon" data-name="Key Icon" xmlns="http://www.w3.org/2000/svg" viewBox="0 0 24 24"><defs><style>.cls-1{fill:#8be3d7;}.cls-2{fill:none;}.cls-3{fill:#164d61;}</style></defs><circle class="cls-1" cx="12" cy="12" r="9"/><rect class="cls-2" width="24" height="24"/><path class="cls-3" d="M12,2A10,10,0,1,0,22,12,10,10,0,0,0,12,2Zm0,19a9,9,0,1,1,9-9A9,9,0,0,1,12,21Z"/><path class="cls-3" d="M12.71,12l3.64-3.65a.49.49,0,0,0-.7-.7L12,11.29,8.35,7.65a.49.49,0,0,0-.7.7L11.29,12,7.65,15.65a.48.48,0,0,0,0,.7.48.48,0,0,0,.7,0L12,12.71l3.65,3.64a.48.48,0,0,0,.7,0,.48.48,0,0,0,0-.7Z"/></svg>