<svg id="Key_Icon" data-name="Key Icon" xmlns="http://www.w3.org/2000/svg" viewBox="0 0 24 24"><defs><style>.cls-1{fill:none;}.cls-2{fill:#164d61;}</style></defs><rect class="cls-1" width="24" height="24"/><path class="cls-2" d="M15.6,14.5H12.5V11.4a.51.51,0,0,0-1,0v3.1H8.4a.51.51,0,0,0,0,1h3.1v3.1a.51.51,0,0,0,1,0V15.5h3.1a.51.51,0,0,0,0-1Z"/><path class="cls-2" d="M18,3H16a1,1,0,0,0-1-1H9A1,1,0,0,0,8,3H6A2,2,0,0,0,4,5V20a2,2,0,0,0,2,2H18a2,2,0,0,0,2-2V5A2,2,0,0,0,18,3ZM15,3V4H9V3Zm4,17a1,1,0,0,1-1,1H6a1,1,0,0,1-1-1V5A1,1,0,0,1,6,4H8A1,1,0,0,0,9,5h6a1,1,0,0,0,1-1h2a1,1,0,0,1,1,1Z"/></svg>