<svg id="Key_Icon" data-name="Key Icon" xmlns="http://www.w3.org/2000/svg" viewBox="0 0 24 24"><defs><style>.cls-1{fill:none;}.cls-2{fill:#164d61;}</style></defs><rect class="cls-1" width="24" height="24"/><path class="cls-2" d="M12.15,14.15,9,17.29V8.5a.5.5,0,0,0-1,0v8.79L4.85,14.15a.49.49,0,0,0-.7.7l4,4a.36.36,0,0,0,.16.11.47.47,0,0,0,.38,0,.36.36,0,0,0,.16-.11l4-4a.49.49,0,0,0-.7-.7Z"/><path class="cls-2" d="M19.85,9.15l-4-4A.36.36,0,0,0,15.69,5a.5.5,0,0,0-.38,0,.36.36,0,0,0-.16.11l-4,4a.49.49,0,0,0,.7.7L15,6.71V15.5a.5.5,0,0,0,1,0V6.71l3.15,3.14a.48.48,0,0,0,.7,0A.48.48,0,0,0,19.85,9.15Z"/></svg>