<svg id="Key_Icon" data-name="Key Icon" xmlns="http://www.w3.org/2000/svg" viewBox="0 0 24 24"><defs><style>.cls-1{fill:none;}.cls-2{fill:#164d61;}</style></defs><rect class="cls-1" width="24" height="24"/><path class="cls-2" d="M18,5H16V4H15V5H9V4H8V5H6A2,2,0,0,0,4,7V18a2,2,0,0,0,2,2H18a2,2,0,0,0,2-2V7A2,2,0,0,0,18,5Zm1,3V18a1,1,0,0,1-1,1H6a1,1,0,0,1-1-1V7A1,1,0,0,1,6,6H8V7H9V6h6V7h1V6h2a1,1,0,0,1,1,1Z"/><path class="cls-2" d="M16,12H12.5V8.5a.5.5,0,0,0-1,0V12H8a.5.5,0,0,0,0,1h3.5v3.5a.5.5,0,0,0,1,0V13H16a.5.5,0,0,0,0-1Z"/></svg>