<svg id="Key_Icon" data-name="Key Icon" xmlns="http://www.w3.org/2000/svg" viewBox="0 0 24 24"><defs><style>.cls-1{fill:none;}.cls-2{fill:#164d61;}</style></defs><rect class="cls-1" width="24" height="24"/><path class="cls-2" d="M12,15a3,3,0,0,0,3-3V5A3,3,0,0,0,9,5v7A3,3,0,0,0,12,15ZM10,5a2,2,0,0,1,4,0v7a2,2,0,0,1-4,0Z"/><path class="cls-2" d="M17.5,10a.5.5,0,0,0-.5.5V12A5,5,0,0,1,7,12V10.5a.5.5,0,0,0-1,0v2a.65.65,0,0,0,0,.2A6,6,0,0,0,11.5,18v3h-1a.5.5,0,0,0,0,1h3a.5.5,0,0,0,0-1h-1V18A6,6,0,0,0,18,12.7a.65.65,0,0,0,0-.2v-2A.5.5,0,0,0,17.5,10Z"/></svg>