<svg id="Key_Icon" data-name="Key Icon" xmlns="http://www.w3.org/2000/svg" viewBox="0 0 24 24"><defs><style>.cls-1{fill:#48ccc6;}.cls-2{fill:none;}.cls-3{fill:#164d61;}</style></defs><rect class="cls-1" x="4" y="16" width="6" height="4" rx="1"/><rect class="cls-1" x="14" y="4" width="6" height="4" rx="1"/><rect class="cls-1" x="14" y="12" width="6" height="8" rx="1"/><rect class="cls-1" x="4" y="4" width="6" height="8" rx="1"/><rect class="cls-2" width="24" height="24"/><path class="cls-3" d="M9,4a1,1,0,0,1,1,1v6a1,1,0,0,1-1,1H5a1,1,0,0,1-1-1V5A1,1,0,0,1,5,4H9M9,3H5A2,2,0,0,0,3,5v6a2,2,0,0,0,2,2H9a2,2,0,0,0,2-2V5A2,2,0,0,0,9,3Z"/><path class="cls-3" d="M9,16a1,1,0,0,1,1,1v2a1,1,0,0,1-1,1H5a1,1,0,0,1-1-1V17a1,1,0,0,1,1-1H9m0-1H5a2,2,0,0,0-2,2v2a2,2,0,0,0,2,2H9a2,2,0,0,0,2-2V17a2,2,0,0,0-2-2Z"/><path class="cls-3" d="M19,12a1,1,0,0,1,1,1v6a1,1,0,0,1-1,1H15a1,1,0,0,1-1-1V13a1,1,0,0,1,1-1h4m0-1H15a2,2,0,0,0-2,2v6a2,2,0,0,0,2,2h4a2,2,0,0,0,2-2V13a2,2,0,0,0-2-2Z"/><path class="cls-3" d="M19,4a1,1,0,0,1,1,1V7a1,1,0,0,1-1,1H15a1,1,0,0,1-1-1V5a1,1,0,0,1,1-1h4m0-1H15a2,2,0,0,0-2,2V7a2,2,0,0,0,2,2h4a2,2,0,0,0,2-2V5a2,2,0,0,0-2-2Z"/></svg>