<svg id="Key_Icon" data-name="Key Icon" xmlns="http://www.w3.org/2000/svg" viewBox="0 0 24 24"><defs><style>.cls-1{fill:none;}.cls-2{fill:#164d61;}</style></defs><rect class="cls-1" width="24" height="24"/><path class="cls-2" d="M6.59,14.41A16.91,16.91,0,0,1,3,4,1,1,0,0,1,4,3H6.56a1,1,0,0,1,1,.68L8.66,7.14a1,1,0,0,1-.24,1l-.11.1a3,3,0,0,0-.56,3.47c.17.33.36.64.56.95L9.05,12c-.14-.22-.29-.43-.41-.66A2,2,0,0,1,9,9l.11-.11a2,2,0,0,0,.48-2L8.46,3.37A2,2,0,0,0,6.56,2H4A2,2,0,0,0,2,4,17.87,17.87,0,0,0,5.87,15.13Z"/><path class="cls-2" d="M20.63,15.54l-3.46-1.15a1.93,1.93,0,0,0-.63-.1,2,2,0,0,0-1.41.58L15,15a2,2,0,0,1-2.31.38h0c-.23-.12-.44-.27-.66-.41l-.74.74c.31.2.62.39.95.56a3,3,0,0,0,3.47-.56l.1-.11a1,1,0,0,1,.71-.29,1.19,1.19,0,0,1,.32.05l3.46,1.15a1,1,0,0,1,.68,1V20a1,1,0,0,1-1,1A16.91,16.91,0,0,1,9.59,17.41l-.72.72A17.87,17.87,0,0,0,20,22a2,2,0,0,0,2-2V17.44A2,2,0,0,0,20.63,15.54Z"/><path class="cls-2" d="M3,21.5a.47.47,0,0,1-.35-.15.48.48,0,0,1,0-.7l15-15a.49.49,0,1,1,.7.7l-15,15A.47.47,0,0,1,3,21.5Z"/></svg>