<svg id="Key_Icon" data-name="Key Icon" xmlns="http://www.w3.org/2000/svg" viewBox="0 0 24 24"><defs><style>.cls-1{fill:none;}.cls-2{fill:#164d61;}</style></defs><rect class="cls-1" width="24" height="24"/><path class="cls-2" d="M12,8.5A3.5,3.5,0,1,0,15.5,12,3.5,3.5,0,0,0,12,8.5Zm0,6A2.5,2.5,0,1,1,14.5,12,2.5,2.5,0,0,1,12,14.5Z"/><path class="cls-2" d="M20.18,10.18H20a1.51,1.51,0,0,1-1.38-.91V9.2A1.52,1.52,0,0,1,19,7.55L19,7.49h0a1.82,1.82,0,0,0,0-2.57h0a1.81,1.81,0,0,0-1.29-.54,1.79,1.79,0,0,0-1.28.54l-.06,0a1.48,1.48,0,0,1-1,.43,1.41,1.41,0,0,1-.6-.13,1.48,1.48,0,0,1-.91-1.37V3.82a1.82,1.82,0,0,0-3.64,0V4a1.51,1.51,0,0,1-.91,1.38H9.2a1.58,1.58,0,0,1-.61.12,1.47,1.47,0,0,1-1-.42L7.49,5h0A1.8,1.8,0,0,0,6.2,4.46,1.82,1.82,0,0,0,4.92,5h0a1.82,1.82,0,0,0,0,2.57l0,.06a1.49,1.49,0,0,1,.3,1.65,1.48,1.48,0,0,1-1.37,1H3.82a1.82,1.82,0,0,0,0,3.64H4a1.51,1.51,0,0,1,1.08,2.56L5,16.51H5a1.82,1.82,0,0,0,0,2.57H5a1.81,1.81,0,0,0,1.29.54,1.79,1.79,0,0,0,1.28-.54l.06,0a1.48,1.48,0,0,1,1-.43,1.41,1.41,0,0,1,.6.13,1.48,1.48,0,0,1,1,1.37v.08a1.82,1.82,0,0,0,3.64,0V20a1.51,1.51,0,0,1,.91-1.38,1.58,1.58,0,0,1,.61-.12,1.47,1.47,0,0,1,1,.42l.06.06h0a1.8,1.8,0,0,0,1.29.53A1.82,1.82,0,0,0,19.08,19h0a1.82,1.82,0,0,0,0-2.57l0-.06a1.51,1.51,0,0,1,1.07-2.56h.08a1.82,1.82,0,0,0,0-3.64Zm0,2.64H20.1a2.51,2.51,0,0,0-1.78,4.27l.06.05a.89.89,0,0,1,.24.58.79.79,0,0,1-.25.58.81.81,0,0,1-1.15,0l-.07-.06a2.48,2.48,0,0,0-1.74-.71,2.42,2.42,0,0,0-1,.21A2.49,2.49,0,0,0,12.89,20v.15a.82.82,0,0,1-1.64,0v-.1a2.47,2.47,0,0,0-1.6-2.28,2.53,2.53,0,0,0-1-.2,2.49,2.49,0,0,0-1.76.72l0,.06a.84.84,0,0,1-.58.24.79.79,0,0,1-.58-.25.81.81,0,0,1,0-1.15l.06-.07a2.45,2.45,0,0,0,.5-2.74A2.49,2.49,0,0,0,4,12.89H3.82a.82.82,0,1,1,0-1.64h.1A2.47,2.47,0,0,0,6.2,9.65a2.49,2.49,0,0,0-.52-2.74l-.06,0a.89.89,0,0,1-.24-.58.79.79,0,0,1,.25-.58.81.81,0,0,1,1.15,0l.07.06a2.53,2.53,0,0,0,2.56.58,1.12,1.12,0,0,0,.26-.08A2.49,2.49,0,0,0,11.18,4V3.82a.82.82,0,0,1,1.64,0V3.9a2.51,2.51,0,0,0,4.27,1.78l.05-.06a.84.84,0,0,1,.58-.24.79.79,0,0,1,.58.25.81.81,0,0,1,0,1.15l-.06.07a2.48,2.48,0,0,0-.58,2.56,1.12,1.12,0,0,0,.08.26A2.49,2.49,0,0,0,20,11.18h.15a.82.82,0,0,1,0,1.64Z"/></svg>