<svg id="Key_Icon" data-name="Key Icon" xmlns="http://www.w3.org/2000/svg" viewBox="0 0 24 24"><defs><style>.cls-1{fill:none;}.cls-2{fill:#164d61;}</style></defs><rect class="cls-1" width="24" height="24"/><rect class="cls-1" width="24" height="24"/><path class="cls-2" d="M21.5,6H18V2.5a.5.5,0,0,0-1,0V6H13.5a.5.5,0,0,0,0,1H17v3.5a.5.5,0,0,0,1,0V7h3.5a.5.5,0,0,0,0-1Z"/><path class="cls-2" d="M14.5,11h-9a.5.5,0,0,0,0,1h9a.5.5,0,0,0,0-1Z"/><path class="cls-2" d="M14.5,14h-9a.5.5,0,0,0,0,1h9a.5.5,0,0,0,0-1Z"/><path class="cls-2" d="M10.7,17H5.3c-.17,0-.3.22-.3.5s.13.5.3.5h5.4c.17,0,.3-.22.3-.5S10.87,17,10.7,17Z"/><path class="cls-2" d="M17,13v7a1,1,0,0,1-1,1H4a1,1,0,0,1-1-1V8A1,1,0,0,1,4,7h7V6H4A2,2,0,0,0,2,8V20a2,2,0,0,0,2,2H16a2,2,0,0,0,2-2V13Z"/></svg>