<svg id="Key_Icon" data-name="Key Icon" xmlns="http://www.w3.org/2000/svg" viewBox="0 0 24 24"><defs><style>.cls-1{fill:none;}.cls-2{fill:#164d61;}</style></defs><rect class="cls-1" width="24" height="24"/><path class="cls-2" d="M14.37,20.67l.22-.05.5-.18.35-.13.35-.16.47-.22.2-.12a6.53,6.53,0,0,0,.56-.35l.05,0a8.62,8.62,0,0,0,1.29-1.07,8.14,8.14,0,0,0,1.07-1.29l0-.05a6.53,6.53,0,0,0,.35-.56l.12-.2c.08-.16.15-.31.22-.47s.11-.23.16-.35a3.62,3.62,0,0,0,.13-.35l.18-.5c0-.07,0-.15.05-.22s.12-.43.16-.65a.43.43,0,0,0,0-.05,8.8,8.8,0,0,0,0-3.34.43.43,0,0,0,0-.05c0-.22-.1-.44-.16-.65s0-.15-.05-.22l-.18-.5a3.62,3.62,0,0,0-.13-.35c0-.12-.1-.23-.16-.35s-.14-.31-.22-.47l-.12-.2A6.53,6.53,0,0,0,19.46,7l0-.05a8.14,8.14,0,0,0-1.07-1.29,8.14,8.14,0,0,0-1.29-1.07l-.05,0a6.53,6.53,0,0,0-.56-.35l-.2-.12-.47-.22-.35-.16-.35-.13-.5-.18-.22,0c-.21-.06-.43-.12-.65-.16h-.05a8.8,8.8,0,0,0-3.34,0h-.05c-.22,0-.44.1-.65.16l-.22,0-.5.18-.35.13-.35.16-.47.22-.2.12A6.53,6.53,0,0,0,7,4.54l-.05,0A8.14,8.14,0,0,0,5.64,5.64h0A9,9,0,0,0,3,12v.79l-.15-.14a.49.49,0,0,0-.7.7l1,1a.48.48,0,0,0,.7,0l1-1a.49.49,0,0,0-.7-.7L4,12.79V12A8,8,0,0,1,6.34,6.34c.19-.19.39-.36.59-.53l.28-.21.35-.25a4.05,4.05,0,0,1,.35-.21A2.07,2.07,0,0,1,8.23,5c.12-.07.24-.12.36-.18l.35-.16.36-.13a2.84,2.84,0,0,1,.38-.13l.36-.1c.13,0,.26-.07.4-.09l.42-.07.35,0a7.82,7.82,0,0,1,1.58,0l.35,0,.42.07c.14,0,.27.06.4.09l.36.1a2.84,2.84,0,0,1,.38.13l.36.13.35.16c.12.06.24.11.36.18a2.07,2.07,0,0,1,.32.19,4.05,4.05,0,0,1,.35.21l.35.25.28.21c.2.17.4.34.59.53s.36.39.53.59l.21.28.25.35a4.05,4.05,0,0,1,.21.35,2.07,2.07,0,0,1,.19.32c.07.12.12.24.18.36s.11.23.16.35.09.24.13.36a2.84,2.84,0,0,1,.13.38c0,.12.07.24.1.36s.07.26.09.4.05.28.07.42,0,.23.05.35a7.82,7.82,0,0,1,0,1.58c0,.12,0,.23-.05.35s0,.28-.07.42-.06.27-.09.4-.06.24-.1.36a2.84,2.84,0,0,1-.13.38c0,.12-.08.24-.13.36s-.11.23-.16.35-.11.24-.18.36a2.07,2.07,0,0,1-.19.32,4.05,4.05,0,0,1-.21.35l-.25.35-.21.28c-.17.2-.34.4-.53.59s-.39.36-.59.53l-.28.21-.35.25a4.05,4.05,0,0,1-.35.21,2.07,2.07,0,0,1-.32.19c-.12.07-.24.12-.36.18l-.35.16-.36.13a2.43,2.43,0,0,1-.38.13l-.36.1-.4.1-.42.06-.35.05c-.25,0-.51,0-.77,0a8,8,0,0,1-5.68-2.34.49.49,0,1,0-.7.7A9,9,0,0,0,12,21h0a9.18,9.18,0,0,0,1.67-.16h.05C13.94,20.79,14.16,20.73,14.37,20.67Z"/><path class="cls-2" d="M15,10V9A3,3,0,0,0,9,9v1a2,2,0,0,0-2,2v3a2,2,0,0,0,2,2h6a2,2,0,0,0,2-2V12A2,2,0,0,0,15,10ZM10,9a2,2,0,0,1,4,0v1H10Zm6,6a1,1,0,0,1-1,1H9a1,1,0,0,1-1-1V12a1,1,0,0,1,1-1h6a1,1,0,0,1,1,1Z"/></svg>