<svg id="Key_Icon" data-name="Key Icon" xmlns="http://www.w3.org/2000/svg" viewBox="0 0 24 24"><defs><style>.cls-1{fill:#8be3d7;}.cls-2{fill:none;}.cls-3{fill:#164d61;}</style></defs><path class="cls-1" d="M12,3a9,9,0,0,1,1.65,17.85A9.21,9.21,0,0,1,12,21a9,9,0,0,1-3.82-.86.9.9,0,0,0-.42-.1H7.59l-4.37.73L4,16.41a1,1,0,0,0-.09-.59,9,9,0,0,1,6.63-12.7A9.61,9.61,0,0,1,12,3"/><rect class="cls-2" width="24" height="24"/><path class="cls-3" d="M7,14.5a2.59,2.59,0,0,1-1.07-.19,1.65,1.65,0,0,1-.66-.5A1.18,1.18,0,0,1,5,13.16a.12.12,0,0,1,0-.1A.14.14,0,0,1,5.15,13h.61a.26.26,0,0,1,.14,0l.08.1a.68.68,0,0,0,.16.26.89.89,0,0,0,.32.21A1.47,1.47,0,0,0,7,13.7a1.28,1.28,0,0,0,.75-.17A.52.52,0,0,0,8,13.08a.41.41,0,0,0-.13-.32,1.14,1.14,0,0,0-.4-.22,6.26,6.26,0,0,0-.73-.21A4.59,4.59,0,0,1,5.83,12a1.26,1.26,0,0,1-.52-.44,1.22,1.22,0,0,1-.18-.69,1.2,1.2,0,0,1,.22-.72A1.54,1.54,0,0,1,6,9.68a2.37,2.37,0,0,1,1-.18,2.49,2.49,0,0,1,.8.12,1.73,1.73,0,0,1,.57.32,1.51,1.51,0,0,1,.35.42,1.1,1.1,0,0,1,.13.45.21.21,0,0,1,0,.1.14.14,0,0,1-.11,0H8a.2.2,0,0,1-.11,0,.18.18,0,0,1-.09-.1.6.6,0,0,0-.27-.37,1.05,1.05,0,0,0-.59-.15,1.07,1.07,0,0,0-.6.14.45.45,0,0,0-.23.43.5.5,0,0,0,.11.32,1,1,0,0,0,.37.23c.17.06.39.13.67.2a4.71,4.71,0,0,1,1,.31,1.31,1.31,0,0,1,.55.44,1.27,1.27,0,0,1,.17.68,1.23,1.23,0,0,1-.25.78,1.59,1.59,0,0,1-.69.5A2.88,2.88,0,0,1,7,14.5Z"/><path class="cls-3" d="M9.91,14.43a.21.21,0,0,1-.13,0,.16.16,0,0,1,0-.12V9.74a.16.16,0,0,1,0-.12.21.21,0,0,1,.13,0h.55a.2.2,0,0,1,.14,0l.07.08L12,12.2l1.35-2.5.06-.08a.21.21,0,0,1,.15,0h.54a.17.17,0,0,1,.12,0,.13.13,0,0,1,0,.12v4.52a.13.13,0,0,1,0,.12.17.17,0,0,1-.12,0h-.58a.21.21,0,0,1-.13,0,.21.21,0,0,1,0-.12v-3l-1,1.85a.31.31,0,0,1-.09.11.21.21,0,0,1-.14,0h-.29a.24.24,0,0,1-.15,0,.44.44,0,0,1-.08-.11l-1-1.85v3a.17.17,0,0,1-.17.17Z"/><path class="cls-3" d="M17,14.5A2.59,2.59,0,0,1,16,14.31a1.65,1.65,0,0,1-.66-.5,1.18,1.18,0,0,1-.24-.65.12.12,0,0,1,0-.1.14.14,0,0,1,.11-.05h.61a.26.26,0,0,1,.14,0l.08.1a.68.68,0,0,0,.16.26.89.89,0,0,0,.32.21,1.47,1.47,0,0,0,.51.08,1.28,1.28,0,0,0,.75-.17.52.52,0,0,0,.24-.45.41.41,0,0,0-.13-.32,1.14,1.14,0,0,0-.4-.22,5.73,5.73,0,0,0-.73-.21A4.24,4.24,0,0,1,15.9,12a1.23,1.23,0,0,1-.53-.44,1.22,1.22,0,0,1-.18-.69,1.2,1.2,0,0,1,.22-.72A1.48,1.48,0,0,1,16,9.68a2.4,2.4,0,0,1,1-.18,2.49,2.49,0,0,1,.8.12,1.73,1.73,0,0,1,.57.32,1.51,1.51,0,0,1,.35.42,1.1,1.1,0,0,1,.13.45.14.14,0,0,1,0,.1.14.14,0,0,1-.11,0h-.64a.2.2,0,0,1-.11,0,.18.18,0,0,1-.09-.1.6.6,0,0,0-.27-.37A1.05,1.05,0,0,0,17,10.3a1.07,1.07,0,0,0-.6.14.45.45,0,0,0-.23.43.5.5,0,0,0,.11.32,1,1,0,0,0,.37.23c.17.06.39.13.67.2a4.71,4.71,0,0,1,1,.31,1.31,1.31,0,0,1,.55.44,1.27,1.27,0,0,1,.17.68,1.23,1.23,0,0,1-.25.78,1.61,1.61,0,0,1-.68.5A3,3,0,0,1,17,14.5Z"/><path class="cls-3" d="M12,3a9,9,0,0,1,1.65,17.85A9.21,9.21,0,0,1,12,21a9,9,0,0,1-3.82-.86.9.9,0,0,0-.42-.1H7.59l-4.37.73L4,16.41a1,1,0,0,0-.09-.59,9,9,0,0,1,6.63-12.7A9.61,9.61,0,0,1,12,3m0-1a9.68,9.68,0,0,0-1.68.14A10,10,0,0,0,3,16.24L2,22l5.76-1A9.87,9.87,0,0,0,12,22a10.45,10.45,0,0,0,1.83-.16A10,10,0,0,0,12,2Z"/></svg>