<svg id="Key_Icon" data-name="Key Icon" xmlns="http://www.w3.org/2000/svg" viewBox="0 0 24 24"><defs><style>.cls-1{fill:#48ccc6;}.cls-2{fill:none;}.cls-3{fill:#164d61;}</style></defs><path class="cls-1" d="M19,9.06a13.4,13.4,0,0,1-7,11.81A13.4,13.4,0,0,1,5,9.06V6A13,13,0,0,0,11.8,3.4l.2-.15.2.15A13,13,0,0,0,19,6Z"/><rect class="cls-2" width="24" height="24"/><path class="cls-3" d="M12.8,2.6,12,2l-.8.6A12,12,0,0,1,4,5V9.06A14.47,14.47,0,0,0,12,22,14.47,14.47,0,0,0,20,9.06V5A12,12,0,0,1,12.8,2.6ZM19,9.06a13.4,13.4,0,0,1-7,11.81A13.4,13.4,0,0,1,5,9.06V6A13,13,0,0,0,11.8,3.4l.2-.15.2.15A13,13,0,0,0,19,6Z"/><circle class="cls-3" cx="12" cy="9" r="3"/><path class="cls-3" d="M10,13a2,2,0,0,0-2,2,5.07,5.07,0,0,0,8,0,2,2,0,0,0-2-2Z"/></svg>