<svg id="Key_Icon" data-name="Key Icon" xmlns="http://www.w3.org/2000/svg" viewBox="0 0 24 24"><defs><style>.cls-1{fill:#48ccc6;}.cls-2{fill:none;}.cls-3{fill:#164d61;}</style></defs><path class="cls-1" d="M6,3H18a1,1,0,0,1,1,1V14a7,7,0,0,1-7,7h0a7,7,0,0,1-7-7V4A1,1,0,0,1,6,3Z"/><rect class="cls-2" width="24" height="24"/><path class="cls-3" d="M18,2H6A2,2,0,0,0,4,4V14a8,8,0,0,0,16,0V4A2,2,0,0,0,18,2Zm1,12A7,7,0,0,1,5,14V13H19Zm0-2H5V4A1,1,0,0,1,6,3H18a1,1,0,0,1,1,1Z"/><path class="cls-3" d="M12,19a2,2,0,1,0-2-2A2,2,0,0,0,12,19Zm0-3a1,1,0,1,1-1,1A1,1,0,0,1,12,16Z"/></svg>