<svg id="Key_Icon" data-name="Key Icon" xmlns="http://www.w3.org/2000/svg" viewBox="0 0 24 24"><defs><style>.cls-1{fill:#8be3d7;}.cls-2{fill:none;}.cls-3{fill:#164d61;}</style></defs><circle class="cls-1" cx="8" cy="9" r="3"/><path class="cls-1" d="M10,15a3,3,0,0,1,3,3v1H3V18a3,3,0,0,1,3-3h4"/><rect class="cls-2" width="24" height="24"/><rect class="cls-2" width="24" height="24"/><path class="cls-3" d="M17.15,4.85,20.29,8H14.5a.5.5,0,0,0,0,1h5.79l-3.14,3.15a.49.49,0,0,0,.7.7l4-4A.36.36,0,0,0,22,8.69a.47.47,0,0,0,0-.38.36.36,0,0,0-.11-.16l-4-4a.49.49,0,0,0-.7.7Z"/><path class="cls-3" d="M8,6A3,3,0,1,1,5,9,3,3,0,0,1,8,6M8,5a4,4,0,1,0,4,4A4,4,0,0,0,8,5Z"/><path class="cls-3" d="M10,15a3,3,0,0,1,3,3v1H3V18a3,3,0,0,1,3-3h4m0-1H6a4,4,0,0,0-4,4v2H14V18a4,4,0,0,0-4-4Z"/></svg>