<svg id="Key_Icon" data-name="Key Icon" xmlns="http://www.w3.org/2000/svg" viewBox="0 0 24 24"><defs><style>.cls-1{fill:none;}.cls-2{fill:#164d61;}</style></defs><rect class="cls-1" width="24" height="24"/><path class="cls-2" d="M12.5,8.5v3h3v1h-3v3h-1v-3h-3v-1h3v-3h1m0-1h-1a1,1,0,0,0-1,1v2h-2a1,1,0,0,0-1,1v1a1,1,0,0,0,1,1h2v2a1,1,0,0,0,1,1h1a1,1,0,0,0,1-1v-2h2a1,1,0,0,0,1-1v-1a1,1,0,0,0-1-1h-2v-2a1,1,0,0,0-1-1Z"/><path class="cls-2" d="M12,3.74a5.69,5.69,0,0,0,4.35,2A5.62,5.62,0,0,0,19,5.1V14c0,2.9-4.72,5.79-7,6.9-2.28-1.11-7-4-7-6.9V5.1a5.62,5.62,0,0,0,2.65.66,5.69,5.69,0,0,0,4.35-2M12,2l-.45.67a4.67,4.67,0,0,1-3.9,2.09,4.66,4.66,0,0,1-2.18-.54A1,1,0,0,0,4,5.09V14c0,4.42,8,8,8,8h0s8-3.58,8-8V5.09a1,1,0,0,0-1.47-.87,4.66,4.66,0,0,1-2.18.54,4.67,4.67,0,0,1-3.9-2.09L12,2Z"/></svg>