<svg id="Key_Icon" data-name="Key Icon" xmlns="http://www.w3.org/2000/svg" viewBox="0 0 24 24"><defs><style>.cls-1{fill:none;}.cls-2{fill:#164d61;}</style></defs><rect class="cls-1" width="24" height="24"/><path class="cls-2" d="M10.5,17a.49.49,0,0,1-.46-.31L8.16,12H2.5a.5.5,0,0,1,0-1h6a.49.49,0,0,1,.46.31l1.5,3.74L13,7.34A.5.5,0,0,1,14,7.28L15.81,11H21.5a.5.5,0,0,1,0,1h-6a.51.51,0,0,1-.45-.28L13.59,8.8,11,16.66a.5.5,0,0,1-.46.34Z"/><path class="cls-2" d="M5,10V6A1,1,0,0,1,6,5H18a1,1,0,0,1,1,1v4h1V6a2,2,0,0,0-2-2H6A2,2,0,0,0,4,6v4Z"/><path class="cls-2" d="M19,13v5a1,1,0,0,1-1,1H6a1,1,0,0,1-1-1V13H4v5a2,2,0,0,0,2,2H18a2,2,0,0,0,2-2V13Z"/></svg>